<?xml version="1.0" encoding="UTF-8"?>
<svg id="Layer_1" data-name="Layer 1" xmlns="http://www.w3.org/2000/svg" xmlns:xlink="http://www.w3.org/1999/xlink" viewBox="0 0 236.64 88.31">
  <defs>
    <style>
      .cls-1 {
        filter: url(#drop-shadow-10);
      }

      .cls-2 {
        filter: url(#drop-shadow-3);
      }

      .cls-2, .cls-3, .cls-4, .cls-5, .cls-6, .cls-7, .cls-8, .cls-9 {
        fill: #444545;
      }

      .cls-3 {
        filter: url(#drop-shadow-4);
      }

      .cls-4 {
        filter: url(#drop-shadow-8);
      }

      .cls-10 {
        filter: url(#drop-shadow-11);
      }

      .cls-5 {
        filter: url(#drop-shadow-7);
      }

      .cls-6 {
        filter: url(#drop-shadow-9);
      }

      .cls-11 {
        fill: #40403f;
      }

      .cls-7 {
        filter: url(#drop-shadow-5);
      }

      .cls-12 {
        filter: url(#drop-shadow-13);
      }

      .cls-13 {
        fill: url(#linear-gradient);
      }

      .cls-8 {
        filter: url(#drop-shadow-2);
      }

      .cls-14 {
        fill: #ed2024;
        filter: url(#drop-shadow-6);
      }

      .cls-15 {
        filter: url(#drop-shadow-12);
      }

      .cls-9 {
        filter: url(#drop-shadow-1);
      }
    </style>
    <filter id="drop-shadow-1" filterUnits="userSpaceOnUse">
      <feOffset dx="4" dy="4"/>
      <feGaussianBlur result="blur" stdDeviation="5"/>
      <feFlood flood-color="#231f20" flood-opacity=".35"/>
      <feComposite in2="blur" operator="in"/>
      <feComposite in="SourceGraphic"/>
    </filter>
    <filter id="drop-shadow-2" filterUnits="userSpaceOnUse">
      <feOffset dx="4" dy="4"/>
      <feGaussianBlur result="blur-2" stdDeviation="5"/>
      <feFlood flood-color="#231f20" flood-opacity=".35"/>
      <feComposite in2="blur-2" operator="in"/>
      <feComposite in="SourceGraphic"/>
    </filter>
    <filter id="drop-shadow-3" filterUnits="userSpaceOnUse">
      <feOffset dx="4" dy="4"/>
      <feGaussianBlur result="blur-3" stdDeviation="5"/>
      <feFlood flood-color="#231f20" flood-opacity=".35"/>
      <feComposite in2="blur-3" operator="in"/>
      <feComposite in="SourceGraphic"/>
    </filter>
    <filter id="drop-shadow-4" filterUnits="userSpaceOnUse">
      <feOffset dx="4" dy="4"/>
      <feGaussianBlur result="blur-4" stdDeviation="5"/>
      <feFlood flood-color="#231f20" flood-opacity=".35"/>
      <feComposite in2="blur-4" operator="in"/>
      <feComposite in="SourceGraphic"/>
    </filter>
    <filter id="drop-shadow-5" filterUnits="userSpaceOnUse">
      <feOffset dx="4" dy="4"/>
      <feGaussianBlur result="blur-5" stdDeviation="5"/>
      <feFlood flood-color="#231f20" flood-opacity=".35"/>
      <feComposite in2="blur-5" operator="in"/>
      <feComposite in="SourceGraphic"/>
    </filter>
    <filter id="drop-shadow-6" filterUnits="userSpaceOnUse">
      <feOffset dx="4" dy="4"/>
      <feGaussianBlur result="blur-6" stdDeviation="5"/>
      <feFlood flood-color="#231f20" flood-opacity=".35"/>
      <feComposite in2="blur-6" operator="in"/>
      <feComposite in="SourceGraphic"/>
    </filter>
    <filter id="drop-shadow-7" filterUnits="userSpaceOnUse">
      <feOffset dx="4" dy="4"/>
      <feGaussianBlur result="blur-7" stdDeviation="5"/>
      <feFlood flood-color="#231f20" flood-opacity=".35"/>
      <feComposite in2="blur-7" operator="in"/>
      <feComposite in="SourceGraphic"/>
    </filter>
    <filter id="drop-shadow-8" filterUnits="userSpaceOnUse">
      <feOffset dx="4" dy="4"/>
      <feGaussianBlur result="blur-8" stdDeviation="5"/>
      <feFlood flood-color="#231f20" flood-opacity=".35"/>
      <feComposite in2="blur-8" operator="in"/>
      <feComposite in="SourceGraphic"/>
    </filter>
    <filter id="drop-shadow-9" filterUnits="userSpaceOnUse">
      <feOffset dx="4" dy="4"/>
      <feGaussianBlur result="blur-9" stdDeviation="5"/>
      <feFlood flood-color="#231f20" flood-opacity=".35"/>
      <feComposite in2="blur-9" operator="in"/>
      <feComposite in="SourceGraphic"/>
    </filter>
    <filter id="drop-shadow-10" filterUnits="userSpaceOnUse">
      <feOffset dx="4" dy="4"/>
      <feGaussianBlur result="blur-10" stdDeviation="5"/>
      <feFlood flood-color="#231f20" flood-opacity=".35"/>
      <feComposite in2="blur-10" operator="in"/>
      <feComposite in="SourceGraphic"/>
    </filter>
    <filter id="drop-shadow-11" filterUnits="userSpaceOnUse">
      <feOffset dx="4" dy="4"/>
      <feGaussianBlur result="blur-11" stdDeviation="5"/>
      <feFlood flood-color="#231f20" flood-opacity=".35"/>
      <feComposite in2="blur-11" operator="in"/>
      <feComposite in="SourceGraphic"/>
    </filter>
    <filter id="drop-shadow-12" filterUnits="userSpaceOnUse">
      <feOffset dx="4" dy="4"/>
      <feGaussianBlur result="blur-12" stdDeviation="5"/>
      <feFlood flood-color="#231f20" flood-opacity=".35"/>
      <feComposite in2="blur-12" operator="in"/>
      <feComposite in="SourceGraphic"/>
    </filter>
    <filter id="drop-shadow-13" filterUnits="userSpaceOnUse">
      <feOffset dx="4" dy="4"/>
      <feGaussianBlur result="blur-13" stdDeviation="5"/>
      <feFlood flood-color="#231f20" flood-opacity=".35"/>
      <feComposite in2="blur-13" operator="in"/>
      <feComposite in="SourceGraphic"/>
    </filter>
    <linearGradient id="linear-gradient" x1="180.68" y1="5.79" x2="210.3" y2="5.79" gradientUnits="userSpaceOnUse">
      <stop offset="0" stop-color="#27aae1"/>
      <stop offset="1" stop-color="#2bb673"/>
    </linearGradient>
  </defs>
  <path class="cls-9" d="M33.98,60.37l1.2,1.07c-2.74,2.5-5.97,3.74-9.69,3.74-3.98,0-7.38-1.4-10.19-4.21s-4.21-6.2-4.21-10.19,1.4-7.37,4.21-10.18,6.2-4.22,10.19-4.22c3.71,0,6.94,1.25,9.69,3.74l-1.2,1.09c-2.41-2.14-5.24-3.22-8.49-3.22-3.53,0-6.54,1.25-9.04,3.74s-3.74,5.51-3.74,9.04,1.25,6.56,3.74,9.05,5.51,3.74,9.04,3.74c3.25,0,6.08-1.07,8.49-3.22Z"/>
  <path class="cls-8" d="M38.57,47.6h1.58v3.15c.33-.47,.71-.92,1.14-1.35,1.39-1.39,2.82-2.13,4.29-2.2v1.72c-1,.05-2.03,.6-3.09,1.67-1.5,1.49-2.28,3.28-2.34,5.36v8.91h-1.58v-17.26Z"/>
  <path class="cls-2" d="M62.83,60.71c-.18,.21-.36,.42-.56,.62-1.56,1.56-3.44,2.34-5.64,2.34-2.05,0-3.82-.68-5.31-2.04l11.25-11.25,1.2-1.2c-.09-.11-.19-.21-.3-.32-.28-.28-.56-.54-.84-.77-1.71-1.37-3.71-2.06-5.99-2.06-2.66,0-4.93,.94-6.82,2.83s-2.83,4.16-2.83,6.82,.94,4.95,2.83,6.84,4.16,2.83,6.82,2.83,4.95-.94,6.84-2.83c.39-.39,.73-.79,1.04-1.21l-1.67-.6Zm-14.17-5.03c0-2.2,.78-4.08,2.34-5.63s3.43-2.33,5.62-2.33c1.82,0,3.41,.53,4.78,1.58l-11.16,11.16c-1.05-1.37-1.58-2.96-1.58-4.78Z"/>
  <path class="cls-3" d="M83.77,47.6v2.44c-.3-.41-.64-.8-1-1.18-1.89-1.89-4.17-2.83-6.84-2.83s-4.93,.94-6.82,2.83-2.83,4.17-2.83,6.84,.94,4.93,2.83,6.82,4.16,2.83,6.82,2.83,4.95-.94,6.84-2.83c.36-.38,.7-.77,1-1.18v3.52h1.58v-17.26h-1.58Zm0,9.67c-.29,1.54-1.03,2.89-2.2,4.06-1.56,1.56-3.44,2.34-5.64,2.34s-4.08-.78-5.64-2.33-2.34-3.43-2.34-5.63,.78-4.08,2.34-5.64,3.44-2.34,5.64-2.34,4.08,.78,5.64,2.34c1.17,1.17,1.9,2.53,2.2,4.08v3.13Z"/>
  <polygon class="cls-7" points="91.18 47.6 91.18 40.25 92.76 40.25 92.76 47.6 96.28 47.6 96.28 49.18 92.76 49.18 92.76 64.86 91.18 64.86 91.18 49.18 87.66 49.18 87.66 47.6 91.18 47.6"/>
  <circle class="cls-14" cx="100.64" cy="43.05" r="2.03"/>
  <rect class="cls-5" x="99.85" y="47.6" width="1.58" height="17.26"/>
  <polygon class="cls-4" points="113.77 61.97 120.41 47.6 122.24 47.6 113.77 65.33 105.3 47.6 107.12 47.6 113.77 61.97"/>
  <path class="cls-6" d="M139.21,60.71c-.18,.21-.36,.42-.56,.62-1.56,1.56-3.44,2.34-5.64,2.34-2.05,0-3.82-.68-5.31-2.04l11.25-11.25,1.2-1.2c-.09-.11-.19-.21-.3-.32-.28-.28-.56-.54-.84-.77-1.71-1.37-3.71-2.06-5.99-2.06-2.66,0-4.93,.94-6.82,2.83s-2.83,4.16-2.83,6.82,.94,4.95,2.83,6.84,4.16,2.83,6.82,2.83,4.95-.94,6.84-2.83c.39-.39,.73-.79,1.04-1.21l-1.67-.6Zm-14.17-5.03c0-2.2,.78-4.08,2.34-5.63s3.43-2.33,5.62-2.33c1.82,0,3.41,.53,4.78,1.58l-11.16,11.16c-1.05-1.37-1.58-2.96-1.58-4.78Z"/>
  <path class="cls-1" d="M145.36,65.16v-27.64l7.82,.03c1.11,0,2.16,.19,3.14,.57,.98,.38,1.85,.91,2.59,1.56,.72,.64,1.3,1.4,1.71,2.25,.4,.84,.6,1.75,.6,2.72,0,1.16-.17,2.24-.75,3.21l-.84,1.33c1.14,.85,2.04,1.88,2.69,3.07,.64,1.17,.96,2.46,.96,3.84,0,1.23-.26,2.4-.78,3.48-.53,1.09-1.26,2.06-2.19,2.88-.94,.83-2.05,1.49-3.29,1.97-1.24,.48-2.6,.72-4.02,.72h-7.63Zm4.74-4.74h2.89c.7,0,5.34-.06,5.21-3.8-.05-1.51-.77-3.8-5.21-3.8h-2.89v7.61Zm0-11.27h2.34c3.15-.03,3.81-1.81,3.81-3.3,0-1.06-.32-1.92-.95-2.54-1.05-1.05-2.56-1.05-3.13-1.05h-2.09v6.89Z"/>
  <path class="cls-10" d="M179.06,65.12c-1.89,0-3.69-.36-5.35-1.08-1.67-.72-3.14-1.72-4.37-2.95-1.23-1.23-2.22-2.7-2.94-4.38-.72-1.66-1.08-3.46-1.08-5.35s.36-3.69,1.08-5.35c.72-1.67,1.71-3.15,2.94-4.38,1.23-1.23,2.7-2.22,4.37-2.95,1.66-.72,3.46-1.08,5.35-1.08s3.69,.36,5.35,1.08c1.67,.73,3.15,1.72,4.39,2.95,1.24,1.23,2.24,2.7,2.96,4.37,.72,1.66,1.08,3.46,1.08,5.35s-.36,3.69-1.08,5.35c-.72,1.67-1.72,3.14-2.96,4.37-1.24,1.23-2.72,2.22-4.39,2.95-1.66,.72-3.46,1.08-5.35,1.08Zm.02-22.78c-1.24,0-2.42,.24-3.51,.71-1.09,.47-2.05,1.12-2.86,1.93-.82,.81-1.47,1.78-1.93,2.86-.47,1.09-.71,2.28-.71,3.51s.24,2.42,.71,3.52c.47,1.08,1.12,2.05,1.93,2.86s1.78,1.47,2.86,1.93c1.09,.47,2.27,.71,3.51,.71s2.42-.24,3.52-.71c1.08-.47,2.05-1.12,2.86-1.93s1.46-1.78,1.93-2.86c.47-1.09,.71-2.28,.71-3.52s-.24-2.42-.71-3.51c-.47-1.09-1.12-2.05-1.93-2.86s-1.78-1.47-2.86-1.93c-1.09-.47-2.28-.71-3.51-.71Z"/>
  <path class="cls-15" d="M217.58,69.13c-2.04-.77-4.67-1.58-6.73-1.62-1.55-2.23-7.24-10.33-7.5-10.7l-.91-1.3-5.84,9.65h-5.52l8.61-14.33-8.23-13.43h5.55l5.47,8.86,5.29-8.86h5.56l-8.1,13.43,12.36,18.31Z"/>
  <g class="cls-12">
    <polygon class="cls-11" points="180.07 6.26 180.07 23.73 194.85 31.05 194.85 12.52 180.07 6.26"/>
    <polygon points="196.06 12.53 196.06 31.05 210.83 23.8 210.83 6.26 196.06 12.53"/>
    <polygon class="cls-13" points="180.68 5.29 195.49 11.57 210.3 5.29 195.49 0 180.68 5.29"/>
  </g>
</svg>